<svg width="38" height="15" viewBox="0 0 38 15" fill="none" xmlns="http://www.w3.org/2000/svg">
<path d="M25.479 0.788086L23.7967 1.66309L28.0025 5.45475H21.2732V3.70475H18.7497V5.45475H3.60879C1.74141 5.45475 0.244141 6.49309 0.244141 7.78809V11.2881H3.60879C3.60879 12.2163 4.14053 13.1066 5.08702 13.763C6.03351 14.4193 7.31723 14.7881 8.65578 14.7881C9.99432 14.7881 11.278 14.4193 12.2245 13.763C13.171 13.1066 13.7028 12.2163 13.7028 11.2881H23.7967C23.7967 12.2163 24.3285 13.1066 25.2749 13.763C26.2214 14.4193 27.5052 14.7881 28.8437 14.7881C30.1822 14.7881 31.466 14.4193 32.4125 13.763C33.359 13.1066 33.8907 12.2163 33.8907 11.2881H37.2553V7.78809C37.2553 6.49309 35.7581 5.45475 33.8907 5.45475H30.526L25.479 0.788086ZM8.65578 9.53809C9.32505 9.53809 9.96691 9.72246 10.4402 10.0506C10.9134 10.3788 11.1793 10.824 11.1793 11.2881C11.1793 11.7522 10.9134 12.1973 10.4402 12.5255C9.96691 12.8537 9.32505 13.0381 8.65578 13.0381C7.98651 13.0381 7.34465 12.8537 6.8714 12.5255C6.39815 12.1973 6.13229 11.7522 6.13229 11.2881C6.13229 10.824 6.39815 10.3788 6.8714 10.0506C7.34465 9.72246 7.98651 9.53809 8.65578 9.53809ZM28.8437 9.53809C29.513 9.53809 30.1548 9.72246 30.6281 10.0506C31.1013 10.3788 31.3672 10.824 31.3672 11.2881C31.3672 11.7522 31.1013 12.1973 30.6281 12.5255C30.1548 12.8537 29.513 13.0381 28.8437 13.0381C28.1744 13.0381 27.5326 12.8537 27.0593 12.5255C26.5861 12.1973 26.3202 11.7522 26.3202 11.2881C26.3202 10.824 26.5861 10.3788 27.0593 10.0506C27.5326 9.72246 28.1744 9.53809 28.8437 9.53809Z" fill="#FBA403"/>
</svg>
