<svg width="52" height="29" viewBox="0 0 52 29" fill="none" xmlns="http://www.w3.org/2000/svg">
<path d="M38.2837 12.4471H37.4242L31.5804 7.47331C31.2583 7.1992 30.8497 6.97791 30.3849 6.82583C29.9201 6.67375 29.4111 6.59477 28.8955 6.59473H17.404C15.9982 6.59473 14.7341 7.1774 14.2119 8.06623L11.6382 12.5297C10.1576 12.7909 9.05957 13.6984 9.05957 14.788V18.8847C9.05957 19.208 9.44421 19.4699 9.9191 19.4699H12.4977C12.4977 21.4092 14.8066 22.9813 17.6549 22.9813C20.5032 22.9813 22.8121 21.4092 22.8121 19.4699H29.6884C29.6884 21.4092 31.9973 22.9813 34.8456 22.9813C37.6939 22.9813 40.0028 21.4092 40.0028 19.4699H42.5814C43.0563 19.4699 43.4409 19.208 43.4409 18.8847V15.9585C43.4409 14.0192 41.132 12.4471 38.2837 12.4471ZM17.6549 21.2256C16.2329 21.2256 15.0763 20.4381 15.0763 19.4699C15.0763 18.5017 16.2329 17.7142 17.6549 17.7142C19.0769 17.7142 20.2335 18.5017 20.2335 19.4699C20.2335 20.4381 19.0769 21.2256 17.6549 21.2256ZM21.5228 12.4471H15.3412L17.404 8.93567H21.5228V12.4471ZM24.1014 12.4471V8.93567H28.8955L33.0212 12.4471H24.1014ZM34.8456 21.2256C33.4236 21.2256 32.267 20.4381 32.267 19.4699C32.267 18.5017 33.4236 17.7142 34.8456 17.7142C36.2676 17.7142 37.4242 18.5017 37.4242 19.4699C37.4242 20.4381 36.2676 21.2256 34.8456 21.2256Z" fill="#FBA403"/>
</svg>
