<svg width="37" height="12" viewBox="0 0 37 12" fill="none" xmlns="http://www.w3.org/2000/svg">
<path d="M18.25 0.704834H10.1123L5.22975 3.6215H3.60222C1.79567 3.6215 0.347168 4.65983 0.347168 5.95483V9.45484H3.8789C4.57874 10.8548 6.41785 11.7882 8.48481 11.7882C10.5518 11.7882 12.3909 10.8548 13.0744 9.45484H23.4092C24.1091 10.8548 25.9482 11.7882 28.0151 11.7882C30.0821 11.7882 31.9212 10.8548 32.6048 9.45484H36.1528V8.28817C36.1528 6.99317 34.4764 6.57317 32.8977 5.95483L18.25 0.704834ZM7.26416 4.78817L10.9261 2.45483H17.4362L23.9463 4.78817H7.26416ZM8.48481 6.53817C9.13228 6.53817 9.75323 6.72254 10.2111 7.05073C10.6689 7.37892 10.9261 7.82404 10.9261 8.28817C10.9261 8.7523 10.6689 9.19742 10.2111 9.52561C9.75323 9.85379 9.13228 10.0382 8.48481 10.0382C7.83734 10.0382 7.21638 9.85379 6.75855 9.52561C6.30072 9.19742 6.04352 8.7523 6.04352 8.28817C6.04352 7.82404 6.30072 7.37892 6.75855 7.05073C7.21638 6.72254 7.83734 6.53817 8.48481 6.53817ZM28.0151 6.53817C28.6626 6.53817 29.2836 6.72254 29.7414 7.05073C30.1992 7.37892 30.4564 7.82404 30.4564 8.28817C30.4564 8.7523 30.1992 9.19742 29.7414 9.52561C29.2836 9.85379 28.6626 10.0382 28.0151 10.0382C27.3677 10.0382 26.7467 9.85379 26.2889 9.52561C25.8311 9.19742 25.5739 8.7523 25.5739 8.28817C25.5739 7.82404 25.8311 7.37892 26.2889 7.05073C26.7467 6.72254 27.3677 6.53817 28.0151 6.53817Z" fill="#FBA403"/>
</svg>
