<svg width="40" height="17" viewBox="0 0 40 17" fill="none" xmlns="http://www.w3.org/2000/svg">
<path d="M3.82615 0.954834C1.86225 0.954834 0.287598 1.99317 0.287598 3.28817V12.6215H3.82615C3.82615 13.5498 4.38536 14.44 5.38077 15.0964C6.37618 15.7528 7.72625 16.1215 9.13397 16.1215C10.5417 16.1215 11.8918 15.7528 12.8872 15.0964C13.8826 14.44 14.4418 13.5498 14.4418 12.6215H25.0574C25.0574 13.5498 25.6167 14.44 26.6121 15.0964C27.6075 15.7528 28.9575 16.1215 30.3653 16.1215C31.773 16.1215 33.1231 15.7528 34.1185 15.0964C35.1139 14.44 35.6731 13.5498 35.6731 12.6215H39.2116V7.95483C39.2116 6.65983 37.637 5.6215 35.6731 5.6215L30.3653 0.954834H3.82615ZM3.82615 2.70483H10.9032V5.6215H3.82615V2.70483ZM14.4418 2.70483H21.5189V5.6215H14.4418V2.70483ZM25.0574 2.70483H29.4806L32.9484 5.6215H25.0574V2.70483ZM9.13397 10.8715C9.83783 10.8715 10.5129 11.0559 11.0106 11.3841C11.5083 11.7123 11.7879 12.1574 11.7879 12.6215C11.7879 13.0856 11.5083 13.5307 11.0106 13.8589C10.5129 14.1871 9.83783 14.3715 9.13397 14.3715C8.43011 14.3715 7.75508 14.1871 7.25737 13.8589C6.75967 13.5307 6.48006 13.0856 6.48006 12.6215C6.48006 12.1574 6.75967 11.7123 7.25737 11.3841C7.75508 11.0559 8.43011 10.8715 9.13397 10.8715ZM30.3653 10.8715C31.0691 10.8715 31.7442 11.0559 32.2419 11.3841C32.7396 11.7123 33.0192 12.1574 33.0192 12.6215C33.0192 13.0856 32.7396 13.5307 32.2419 13.8589C31.7442 14.1871 31.0691 14.3715 30.3653 14.3715C29.6614 14.3715 28.9864 14.1871 28.4887 13.8589C27.991 13.5307 27.7114 13.0856 27.7114 12.6215C27.7114 12.1574 27.991 11.7123 28.4887 11.3841C28.9864 11.0559 29.6614 10.8715 30.3653 10.8715Z" fill="#FBA403"/>
</svg>
